# 3ds Max Wavefront OBJ Exporter v0.97b - (c)2007 guruware
# File Created: 08.01.2015 11:45:08

mtllib arc.mtl

#
# object Grim_Bear_Arc
#

v  78.6138 208.4460 18.7272
v  54.3999 245.3394 18.7272
v  44.7370 214.1513 15.6084
v  44.7370 214.1514 1.8524
v  64.8620 183.4879 1.8524
v  64.8620 183.4879 16.8913
v  56.3538 -2.0865 16.8913
v  16.1233 265.2748 18.7272
v  56.3538 -2.0865 1.8524
v  -0.0000 265.2748 18.7272
v  -0.0000 230.7203 15.6084
v  12.9240 230.7203 15.6084
v  101.4019 217.9881 23.0734
v  69.9913 267.2780 23.0734
v  54.3999 245.3393 20.5596
v  78.6138 208.4460 22.3496
v  68.3016 -2.0865 22.3496
v  23.9190 290.0865 26.2641
v  68.3016 -2.0865 18.7272
v  -0.0000 290.0865 26.2642
v  -0.0000 265.2748 23.3724
v  16.1233 265.2748 23.3724
v  69.9913 267.2780 1.8524
v  23.9190 290.0865 1.8524
v  -0.0000 290.0865 1.8524
v  -78.6139 208.4460 18.7272
v  -64.8620 183.4879 16.8913
v  -44.7370 214.1513 15.6084
v  -64.8620 183.4879 1.8524
v  -68.1573 -2.0865 20.3009
v  -56.3538 -2.0865 16.8913
v  -12.9240 230.7203 15.6084
v  -16.1233 265.2748 18.7272
v  -56.3538 -2.0865 1.8524
v  -12.9240 230.7203 1.8524
v  -44.7370 214.1514 1.8524
v  -101.4019 217.9881 23.0734
v  -78.6139 208.4460 22.3496
v  -54.3999 245.3393 20.5596
v  -101.4019 -2.0865 25.1039
v  -68.3017 -2.0865 22.3496
v  -16.1233 265.2748 23.3724
v  -23.9190 290.0865 26.2641
v  -68.3017 -2.0865 18.7272
v  -54.3999 245.3394 18.7272
v  -101.4019 217.9881 1.8524
v  -69.9914 267.2780 1.8524
v  -69.9914 267.2780 23.0734
v  -23.9190 290.0865 1.8524
v  78.6138 208.4460 -15.0223
v  64.8620 183.4879 -13.1864
v  44.7370 214.1513 -11.9035
v  68.1573 -2.0865 -16.5961
v  56.3538 -2.0865 -13.1864
v  12.9240 230.7203 -11.9035
v  16.1233 265.2748 -15.0223
v  -0.0000 265.2748 -15.0224
v  12.9240 230.7203 1.8524
v  101.4019 217.9881 -19.3685
v  78.6138 208.4460 -18.6448
v  54.3999 245.3393 -16.8548
v  101.4019 -2.0865 -21.3991
v  68.3016 -2.0865 -18.6448
v  16.1233 265.2748 -19.6675
v  23.9190 290.0865 -22.5593
v  68.3016 -2.0865 -15.0223
v  -0.0000 290.0865 -22.5593
v  54.3999 245.3394 -15.0224
v  101.4019 217.9881 1.8524
v  69.9913 267.2780 -19.3686
v  -78.6139 208.4460 -15.0223
v  -54.3999 245.3394 -15.0224
v  -44.7370 214.1513 -11.9035
v  -64.8620 183.4879 -13.1864
v  -56.3538 -2.0865 -13.1864
v  -16.1233 265.2748 -15.0223
v  -0.0000 230.7203 -11.9035
v  -12.9240 230.7203 -11.9035
v  -101.4019 217.9881 -19.3685
v  -69.9914 267.2780 -19.3686
v  -54.3999 245.3393 -16.8548
v  -78.6139 208.4460 -18.6448
v  -68.3017 -2.0865 -18.6448
v  -23.9190 290.0865 -22.5593
v  -68.3017 -2.0865 -15.0223
v  -0.0000 265.2748 -19.6675
v  -16.1233 265.2748 -19.6675
v  68.1573 -2.0865 20.3009
v  101.4019 -2.0865 25.1039
v  -68.1573 -2.0865 -16.5961
v  -101.4019 -2.0865 -21.3991
# 91 vertices

vn -0.0902 -0.0253 0.9956
vn -0.0527 -0.0654 0.9965
vn -0.0648 -0.0525 0.9965
vn -0.6724 -0.7402 -0.0000
vn -0.6706 -0.7418 0.0000
vn -0.9644 -0.2643 -0.0000
vn -0.1069 -0.0011 0.9943
vn -0.2261 0.0169 0.9740
vn -0.0163 -0.0723 0.9973
vn -0.9652 -0.2614 -0.0000
vn -0.9990 0.0458 -0.0000
vn 0.0000 -0.0738 0.9973
vn -0.0198 -0.0720 0.9972
vn -0.4619 -0.8869 -0.0000
vn 0.4118 0.2834 0.8661
vn 0.5086 0.5427 0.6685
vn -0.0287 -0.0619 0.9977
vn -0.6694 -0.7429 -0.0000
vn -0.6706 -0.7418 -0.0000
vn -0.9648 -0.2628 0.0000
vn -0.0298 0.0090 0.9995
vn -0.0653 0.0071 0.9978
vn 0.1788 0.6966 0.6948
vn -0.9658 -0.2594 0.0000
vn -0.9988 0.0489 0.0000
vn -0.0000 0.6726 0.7400
vn 0.0000 -0.0951 0.9955
vn 0.0043 -0.0965 0.9953
vn 0.6680 0.7441 -0.0000
vn 0.2278 0.9737 -0.0000
vn 0.0000 1.0000 0.0000
vn 0.0902 -0.0253 0.9956
vn 0.1069 -0.0011 0.9943
vn 0.0648 -0.0525 0.9965
vn 0.9652 -0.2614 -0.0000
vn 0.9644 -0.2643 0.0000
vn 0.6724 -0.7402 -0.0000
vn 0.2304 0.0174 0.9729
vn 0.2261 0.0169 0.9740
vn 0.0198 -0.0720 0.9972
vn 0.0163 -0.0723 0.9973
vn 0.9990 0.0458 -0.0000
vn 0.9990 0.0458 0.0000
vn 0.4619 -0.8869 -0.0000
vn 0.6706 -0.7418 0.0000
vn -0.4118 0.2834 0.8661
vn 0.0298 0.0090 0.9995
vn 0.0287 -0.0619 0.9977
vn 0.9658 -0.2594 0.0000
vn 0.9648 -0.2628 0.0000
vn 0.6694 -0.7429 -0.0000
vn 0.0681 0.0075 0.9977
vn 0.0653 0.0071 0.9978
vn -0.0043 -0.0965 0.9953
vn -0.1788 0.6966 0.6948
vn 0.9988 0.0489 -0.0000
vn 0.6706 -0.7418 -0.0000
vn -0.8433 0.5374 -0.0000
vn -0.6680 0.7441 -0.0000
vn -0.5086 0.5427 0.6685
vn -0.2278 0.9737 -0.0000
vn -0.0902 -0.0253 -0.9956
vn -0.6487 -0.1548 -0.7451
vn -0.4641 -0.4970 -0.7332
vn -0.2304 0.0174 -0.9729
vn -0.7892 0.0403 -0.6128
vn -0.1969 -0.4083 -0.8913
vn -0.0163 -0.0723 -0.9973
vn 0.0000 -0.0738 -0.9973
vn 0.4118 0.2834 -0.8661
vn -0.0298 0.0090 -0.9995
vn -0.0287 -0.0619 -0.9977
vn -0.9658 -0.2594 -0.0000
vn -0.9648 -0.2628 -0.0000
vn -0.6694 -0.7429 0.0000
vn -0.0681 0.0075 -0.9977
vn -0.0653 0.0071 -0.9978
vn 0.0043 -0.0965 -0.9953
vn 0.1788 0.6966 -0.6948
vn -0.9988 0.0489 -0.0000
vn 0.0000 0.6726 -0.7400
vn -0.4619 -0.8869 0.0000
vn 0.8433 0.5374 -0.0000
vn 0.5086 0.5427 -0.6685
vn 0.0902 -0.0253 -0.9956
vn 0.0527 -0.0654 -0.9965
vn 0.4641 -0.4970 -0.7332
vn 0.6487 -0.1548 -0.7451
vn 0.7892 0.0403 -0.6128
vn 0.0163 -0.0723 -0.9973
vn 0.1969 -0.4083 -0.8913
vn -0.4118 0.2834 -0.8661
vn -0.5086 0.5427 -0.6685
vn 0.0287 -0.0619 -0.9977
vn 0.6694 -0.7429 0.0000
vn 0.9648 -0.2628 -0.0000
vn 0.0298 0.0090 -0.9995
vn 0.0653 0.0071 -0.9978
vn -0.1788 0.6966 -0.6948
vn 0.9658 -0.2594 -0.0000
vn 0.9988 0.0489 0.0000
vn 0.0000 -0.0951 -0.9955
vn -0.0043 -0.0965 -0.9953
vn 0.4619 -0.8869 0.0000
vn -0.2304 0.0174 0.9729
vn -0.0681 0.0075 0.9977
vn 0.0527 -0.0654 0.9965
vn -0.0527 -0.0654 -0.9965
vn 0.2304 0.0174 -0.9729
vn 0.0681 0.0075 -0.9977
# 110 vertex normals

vt 0.3528 0.6372 0.0000
vt 0.4527 0.7532 0.0000
vt 0.5637 0.6721 0.0000
vt 0.6376 0.6499 0.0000
vt 0.5537 0.5724 0.0000
vt 0.4580 0.5688 0.0000
vt 0.4494 0.0269 0.0000
vt 0.6476 0.8408 0.0000
vt 0.5481 0.0281 0.0000
vt 0.7443 0.8572 0.0000
vt 0.8200 0.7654 0.0000
vt 0.7410 0.7480 0.0000
vt 0.0993 0.6894 0.0000
vt 0.2926 0.8330 0.0000
vt 0.4100 0.7752 0.0000
vt 0.4282 0.7688 0.0000
vt 0.2859 0.6590 0.0000
vt 0.2532 0.6625 0.0000
vt 0.2522 0.0452 0.0000
vt 0.5529 0.9198 0.0000
vt 0.2869 0.0448 0.0000
vt 0.6964 0.9423 0.0000
vt 0.7450 0.8706 0.0000
vt 0.6407 0.8554 0.0000
vt 0.2104 0.8662 0.0000
vt 0.4952 0.9624 0.0000
vt 0.6481 0.9912 0.0000
vt 0.3609 0.0276 0.0000
vt 0.7984 0.7161 0.0000
vt 0.1011 0.0456 0.0000
vt 0.6512 0.8461 0.0000
vt -0.0010 0.7172 0.0000
# 32 texture coords

g Grim_Bear_Arc
usemtl Material__509
s 1
f 1/1/1 2/2/2 3/3/3 
s 4
f 3/3/4 4/4/5 5/5/6 
s 1
f 1/1/1 6/6/7 7/7/8 
f 3/3/3 2/2/2 8/8/9 
s 4
f 6/6/10 5/5/6 9/9/11 
s 1
f 10/10/12 11/11/12 12/12/13 
s 4
f 4/4/5 3/3/4 12/12/14 
s 1
f 13/13/15 14/14/16 15/15/17 
s 2
f 15/15/18 2/16/19 1/17/20 
s 1
f 13/13/15 16/18/21 17/19/22 
f 15/15/17 14/14/16 18/20/23 
s 2
f 16/18/24 1/17/20 19/21/25 
s 1
f 20/22/26 21/23/27 22/24/28 
s 2
f 2/16/19 15/15/18 22/24/14 
s 1
f 23/25/29 14/14/16 13/13/15 
f 24/26/30 18/20/23 14/14/16 
f 25/27/31 20/22/26 18/20/23 
f 26/1/32 27/6/33 28/3/34 
s 4
f 27/6/35 29/5/36 28/3/37 
s 1
f 26/1/32 30/28/38 31/7/39 
f 28/3/34 32/12/40 33/8/41 
s 4
f 31/7/42 34/9/43 27/6/35 
s 1
f 33/8/41 32/12/40 10/10/12 
s 4
f 35/29/44 32/12/44 36/4/45 
s 1
f 37/13/46 38/18/47 39/15/48 
s 2
f 38/18/49 26/17/50 39/15/51 
s 1
f 37/13/46 40/30/52 41/19/53 
f 39/15/48 42/24/54 43/20/55 
s 2
f 41/19/56 44/21/56 38/18/49 
s 1
f 43/20/55 42/24/54 20/22/26 
s 2
f 33/31/44 42/24/44 45/16/57 
s 1
f 46/32/58 37/13/46 47/25/59 
f 47/25/59 48/14/60 49/26/61 
f 49/26/61 43/20/55 25/27/31 
s 4
f 50/1/62 51/6/63 52/3/64 
f 51/6/63 5/5/6 52/3/64 
f 50/1/62 53/28/65 54/7/66 
f 52/3/64 55/12/67 56/8/68 
f 54/7/66 9/9/11 51/6/63 
f 56/8/68 55/12/67 57/10/69 
f 58/29/14 55/12/67 4/4/5 
s 1
f 59/13/70 60/18/71 61/15/72 
s 2
f 60/18/73 50/17/74 61/15/75 
s 1
f 59/13/70 62/30/76 63/19/77 
f 61/15/72 64/24/78 65/20/79 
s 2
f 63/19/80 66/21/80 60/18/73 
s 1
f 65/20/79 64/24/78 67/22/81 
s 2
f 56/31/82 64/24/82 68/16/5 
s 1
f 69/32/83 59/13/70 23/25/29 
f 23/25/29 70/14/84 24/26/30 
f 24/26/30 65/20/79 25/27/31 
s 4
f 71/1/85 72/2/86 73/3/87 
f 73/3/87 36/4/45 29/5/36 
f 71/1/85 74/6/88 75/7/89 
f 73/3/87 72/2/86 76/8/90 
f 74/6/88 29/5/36 34/9/43 
f 57/10/69 77/11/69 78/12/91 
f 36/4/45 73/3/87 78/12/91 
s 1
f 79/13/92 80/14/93 81/15/94 
s 2
f 81/15/95 72/16/45 71/17/96 
s 1
f 79/13/92 82/18/97 83/19/98 
f 81/15/94 80/14/93 84/20/99 
s 2
f 82/18/100 71/17/96 85/21/101 
s 1
f 67/22/81 86/23/102 87/24/103 
s 2
f 72/16/45 81/15/95 87/24/104 
s 1
f 47/25/59 80/14/93 79/13/92 
f 49/26/61 84/20/99 80/14/93 
f 25/27/31 67/22/81 84/20/99 
f 3/3/3 6/6/7 1/1/1 
s 4
f 5/5/6 6/6/10 3/3/4 
s 1
f 7/7/8 88/28/105 1/1/1 
f 8/8/9 12/12/13 3/3/3 
s 4
f 9/9/11 7/7/11 6/6/10 
s 1
f 12/12/13 8/8/9 10/10/12 
s 4
f 12/12/14 58/29/14 4/4/5 
s 1
f 15/15/17 16/18/21 13/13/15 
s 2
f 1/17/20 16/18/24 15/15/18 
s 1
f 17/19/22 89/30/106 13/13/15 
f 18/20/23 22/24/28 15/15/17 
s 2
f 19/21/25 17/19/25 16/18/24 
s 1
f 22/24/28 18/20/23 20/22/26 
s 2
f 22/24/14 8/31/14 2/16/19 
s 1
f 13/13/15 69/32/83 23/25/29 
f 14/14/16 23/25/29 24/26/30 
f 18/20/23 24/26/30 25/27/31 
f 28/3/34 45/2/107 26/1/32 
s 4
f 29/5/36 36/4/45 28/3/37 
s 1
f 31/7/39 27/6/33 26/1/32 
f 33/8/41 45/2/107 28/3/34 
s 4
f 34/9/43 29/5/36 27/6/35 
s 1
f 32/12/40 11/11/12 10/10/12 
s 4
f 32/12/44 28/3/37 36/4/45 
s 1
f 39/15/48 48/14/60 37/13/46 
s 2
f 26/17/50 45/16/57 39/15/51 
s 1
f 41/19/53 38/18/47 37/13/46 
f 43/20/55 48/14/60 39/15/48 
s 2
f 44/21/56 26/17/50 38/18/49 
s 1
f 42/24/54 21/23/27 20/22/26 
s 2
f 42/24/44 39/15/51 45/16/57 
s 1
f 37/13/46 48/14/60 47/25/59 
f 48/14/60 43/20/55 49/26/61 
f 43/20/55 20/22/26 25/27/31 
s 4
f 52/3/64 68/2/108 50/1/62 
f 5/5/6 4/4/5 52/3/64 
f 54/7/66 51/6/63 50/1/62 
f 56/8/68 68/2/108 52/3/64 
f 9/9/11 5/5/6 51/6/63 
f 55/12/67 77/11/69 57/10/69 
f 55/12/67 52/3/64 4/4/5 
s 1
f 61/15/72 70/14/84 59/13/70 
s 2
f 50/17/74 68/16/5 61/15/75 
s 1
f 63/19/77 60/18/71 59/13/70 
f 65/20/79 70/14/84 61/15/72 
s 2
f 66/21/80 50/17/74 60/18/73 
s 1
f 64/24/78 86/23/102 67/22/81 
s 2
f 64/24/82 61/15/75 68/16/5 
s 1
f 59/13/70 70/14/84 23/25/29 
f 70/14/84 65/20/79 24/26/30 
f 65/20/79 67/22/81 25/27/31 
s 4
f 73/3/87 74/6/88 71/1/85 
f 29/5/36 74/6/88 73/3/87 
f 75/7/89 90/28/109 71/1/85 
f 76/8/90 78/12/91 73/3/87 
f 34/9/43 75/7/89 74/6/88 
f 78/12/91 76/8/90 57/10/69 
f 78/12/91 35/29/44 36/4/45 
s 1
f 81/15/94 82/18/97 79/13/92 
s 2
f 71/17/96 82/18/100 81/15/95 
s 1
f 83/19/98 91/30/110 79/13/92 
f 84/20/99 87/24/103 81/15/94 
s 2
f 85/21/101 83/19/101 82/18/100 
s 1
f 87/24/103 84/20/99 67/22/81 
s 2
f 87/24/104 76/31/104 72/16/45 
s 1
f 79/13/92 46/32/58 47/25/59 
f 80/14/93 47/25/59 49/26/61 
f 84/20/99 49/26/61 25/27/31 
# 136 faces

