# 3ds Max Wavefront OBJ Exporter v0.97b - (c)2007 guruware
# File Created: 08.01.2015 11:43:32

mtllib column.mtl

#
# object Grim_Bear_Column
#

v  18.1318 148.8364 -31.3622
v  17.3726 91.1237 -30.8828
v  -24.6946 148.8364 -30.0784
v  -32.1111 148.8364 -22.6619
v  -30.0416 91.1237 -23.9286
v  -26.9331 148.8364 20.9570
v  -22.4909 91.1237 -31.4793
v  14.6452 33.2712 -42.1672
v  14.6452 0.0000 -42.1672
v  -34.0428 33.2677 -42.1357
v  -40.8848 33.2677 -35.6517
v  -40.8848 0.0000 -35.6517
v  -40.9305 33.2712 18.5130
v  -34.0428 0.0000 -42.1357
v  17.3726 42.7220 -33.8004
v  -25.4703 42.7186 -33.8066
v  -33.6759 42.7186 -25.6011
v  -31.8773 42.7255 19.8675
v  17.8813 46.1099 -35.8878
v  -20.4161 224.0000 -26.7879
v  -34.8227 46.1065 -26.4569
v  -30.1572 91.1237 19.8675
v  -23.1798 224.0000 19.8675
v  -26.6572 224.0000 -20.5469
v  -26.2118 46.1065 -35.0679
v  -33.9737 46.1099 20.5264
v  -26.2835 266.0000 21.3803
v  -22.6303 266.0000 27.0528
v  -26.2835 266.0000 -24.2320
v  -19.7129 148.8364 30.1415
v  -22.7222 91.1237 31.5424
v  24.7860 148.8364 30.1415
v  32.2025 148.8364 22.7250
v  30.1330 91.1237 23.9916
v  32.2025 148.8364 -23.9457
v  24.7860 148.8364 -31.3622
v  22.5823 91.1237 -30.8828
v  -26.7368 148.8364 26.1921
v  -27.8506 91.1237 26.7351
v  22.5823 91.1237 31.5424
v  30.1330 91.1237 -23.3321
v  -31.7935 33.2746 42.1987
v  -31.7935 0.0000 42.1987
v  34.1342 33.2746 42.1987
v  26.6352 224.0000 35.8726
v  26.6352 256.0001 35.8726
v  -26.2835 224.0000 35.8726
v  40.9762 33.2746 35.7148
v  40.9762 0.0000 35.7148
v  40.9762 33.2746 -32.1434
v  35.4550 224.0000 -27.8852
v  35.4550 256.0001 -27.8852
v  35.4550 224.0000 27.0528
v  34.1342 33.2746 -42.1987
v  34.1342 0.0000 -42.1987
v  -26.2835 224.0000 -36.7050
v  -26.2835 256.0001 -36.7050
v  26.6352 224.0000 -36.7050
v  -40.9305 0.0000 18.5130
v  -40.9762 33.2746 35.7148
v  -35.1033 224.0000 27.0528
v  -35.1033 256.0001 27.0528
v  -35.1033 224.0000 -27.8852
v  -40.9762 0.0000 35.7148
v  -26.2835 256.0001 35.8726
v  35.4550 256.0001 27.0528
v  34.1342 0.0000 42.1987
v  26.6352 256.0001 -36.7050
v  40.9762 0.0000 -32.1434
v  -35.1033 256.0001 -27.8852
v  -23.6717 42.7255 33.8697
v  25.5617 42.7255 33.8697
v  33.7673 42.7255 25.6641
v  33.7673 42.7255 -25.5886
v  25.5617 42.7255 -33.7942
v  -29.8506 42.7255 28.7351
v  -25.3627 46.1133 35.1310
v  20.5076 224.0000 26.8510
v  34.9141 46.1134 26.5200
v  26.7486 224.0000 -18.8557
v  17.3726 224.0000 -25.0967
v  -31.8057 46.1134 29.7367
v  -16.9388 224.0000 26.8510
v  26.7486 224.0000 20.6100
v  26.3032 46.1134 35.1310
v  20.5076 224.0000 -25.0967
v  34.9141 46.1134 -27.2768
v  22.9819 266.0000 27.0528
v  26.6352 266.0000 23.3995
v  26.6352 266.0000 -24.2320
v  22.9819 266.0000 -27.8852
v  -22.6303 266.0000 -27.8852
v  26.3032 46.1134 -35.8878
v  -22.8148 224.0000 23.2646
# 94 vertices

vn -0.0094 0.0310 -0.9995
vn 0.0029 0.0562 -0.9984
vn -0.4009 0.0298 -0.9156
vn -0.9452 0.0218 -0.3258
vn -0.9252 0.0623 -0.3744
vn -0.9970 0.0312 0.0706
vn -0.3685 0.0619 -0.9275
vn -0.0009 0.3547 -0.9350
vn -0.0011 0.0000 -1.0000
vn -0.3600 0.3876 -0.8487
vn -0.8384 0.3815 -0.3893
vn -0.9185 0.0000 -0.3954
vn -0.9299 0.3678 0.0054
vn -0.3705 0.0000 -0.9288
vn -0.0000 0.6627 -0.7489
vn -0.1871 0.7419 -0.6439
vn -0.6784 0.7142 -0.1723
vn -0.6915 0.7208 0.0475
vn -0.0016 0.1027 -0.9947
vn -0.3637 0.0772 -0.9283
vn -0.9184 0.1133 -0.3790
vn -0.9846 0.0760 0.1577
vn -0.9932 0.0596 0.1000
vn -0.9368 0.0776 -0.3413
vn -0.3984 0.1056 -0.9111
vn -0.0071 -0.5238 -0.8518
vn -0.0079 -0.5195 -0.8545
vn -0.3611 -0.3996 -0.8426
vn -0.8501 -0.3799 -0.3648
vn -0.8669 -0.3814 -0.3209
vn -0.8369 -0.5344 0.1182
vn -0.3386 -0.3925 -0.8552
vn -0.4283 0.8975 0.1051
vn -0.2068 0.8837 0.4200
vn -0.4339 0.8828 -0.1797
vn -0.2560 0.0374 0.9660
vn -0.3665 0.0715 0.9277
vn 0.3914 0.0346 0.9196
vn 0.9252 0.0260 0.3785
vn 0.9218 0.0481 0.3847
vn 0.9222 0.0275 -0.3858
vn 0.3882 0.0375 -0.9208
vn 0.3745 0.0567 -0.9255
vn -0.8522 0.0410 0.5216
vn -0.8386 0.0799 0.5389
vn 0.3717 0.0570 0.9266
vn 0.9246 0.0476 -0.3779
vn -0.3000 0.3896 0.8708
vn -0.3026 0.0000 0.9531
vn 0.3598 0.3875 0.8488
vn 0.3827 -0.0000 0.9239
vn 0.3593 0.3439 0.8675
vn -0.3827 -0.0000 0.9239
vn 0.8386 0.3814 0.3889
vn 0.9187 0.0000 0.3951
vn 0.8899 0.3497 -0.2928
vn 0.9239 0.0000 -0.3827
vn 0.8675 0.3439 -0.3593
vn 0.9239 0.0000 0.3827
vn 0.4401 0.3721 -0.8172
vn 0.4670 0.0000 -0.8843
vn -0.3827 0.0000 -0.9239
vn -0.3593 0.3439 -0.8675
vn 0.3827 0.0000 -0.9239
vn -1.0000 0.0000 -0.0018
vn -0.8087 0.3990 0.4322
vn -0.9239 -0.0000 0.3827
vn -0.8661 0.3479 0.3590
vn -0.9239 0.0000 -0.3827
vn -0.8885 0.0000 0.4588
vn -0.3593 0.3439 0.8675
vn 0.8675 0.3439 0.3593
vn 0.3702 0.0000 0.9289
vn 0.3593 0.3439 -0.8675
vn 0.9557 -0.0000 -0.2943
vn -0.8675 0.3439 -0.3593
vn -0.1720 0.7304 0.6610
vn 0.1872 0.7419 0.6439
vn 0.6838 0.7082 0.1755
vn 0.6908 0.6976 -0.1902
vn 0.1901 0.7427 -0.6421
vn -0.4991 0.8053 0.3199
vn -0.3455 0.0947 0.9336
vn 0.3737 0.0618 0.9255
vn 0.9163 0.1188 0.3824
vn 0.9232 0.0922 -0.3730
vn 0.0224 0.0833 -0.9963
vn -0.8451 0.0982 0.5255
vn -0.2650 0.0538 0.9627
vn 0.9209 0.0776 0.3819
vn 0.3904 0.1052 0.9146
vn 0.3760 0.0982 -0.9214
vn 0.9124 0.1309 -0.3879
vn 0.1797 0.8828 0.4339
vn 0.4339 0.8828 0.1797
vn 0.4339 0.8828 -0.1797
vn 0.1797 0.8828 -0.4339
vn -0.1797 0.8828 -0.4339
vn -0.3456 -0.4729 0.8105
vn -0.2411 -0.4420 0.8640
vn 0.3617 -0.3938 0.8451
vn 0.8469 -0.3805 0.3714
vn 0.8651 -0.3766 0.3313
vn 0.7969 -0.4631 -0.3879
vn 0.3160 -0.5477 -0.7747
vn -0.7180 -0.5447 0.4333
vn -0.7114 -0.5434 0.4457
vn 0.3387 -0.3925 0.8551
vn 0.3273 -0.5475 -0.7701
vn -0.8364 -0.5373 0.1084
vn -0.9886 0.0856 0.1241
vn 0.3863 0.1334 -0.9127
vn -0.8436 0.0648 0.5330
vn 0.8605 -0.4285 -0.2754
# 114 vertex normals

vt 0.5747 0.4338 0.0000
vt 0.5747 0.3035 0.0000
vt 0.7537 0.4338 0.0000
vt 0.7911 0.4338 0.0000
vt 0.7911 0.3035 0.0000
vt 0.9782 0.4338 0.0000
vt 0.7537 0.3035 0.0000
vt 0.5714 0.1007 0.0000
vt 0.5714 0.0123 0.0000
vt 0.7872 0.1007 0.0000
vt 0.8206 0.1007 0.0000
vt 0.8206 0.0123 0.0000
vt 0.9826 0.1007 0.0000
vt 0.7872 0.0123 0.0000
vt 0.5774 0.1349 0.0000
vt 0.7534 0.1349 0.0000
vt 0.8430 0.1349 0.0000
vt 0.9705 0.1349 0.0000
vt 0.5747 0.1637 0.0000
vt 0.7537 0.6043 0.0000
vt 0.7911 0.1637 0.0000
vt 0.9782 0.3035 0.0000
vt 0.9782 0.6043 0.0000
vt 0.7911 0.6043 0.0000
vt 0.7537 0.1637 0.0000
vt 0.5747 0.1531 0.0000
vt 0.7911 0.1531 0.0000
vt 0.9782 0.1637 0.0000
vt 0.7537 0.1531 0.0000
vt 0.2624 0.7828 0.0000
vt 0.2722 0.7881 0.0000
vt 0.1456 0.7836 0.0000
vt 0.0874 0.4338 0.0000
vt 0.0874 0.3035 0.0000
vt 0.2664 0.4338 0.0000
vt 0.3038 0.4338 0.0000
vt 0.3038 0.3035 0.0000
vt 0.4909 0.4338 0.0000
vt 0.5356 0.4338 0.0000
vt 0.5356 0.3035 0.0000
vt 0.0522 0.4338 0.0000
vt 0.0522 0.3035 0.0000
vt 0.2664 0.3035 0.0000
vt 0.4909 0.3035 0.0000
vt 0.0862 0.1007 0.0000
vt 0.0862 0.0123 0.0000
vt 0.3020 0.1007 0.0000
vt 0.3627 0.9389 0.0000
vt 0.2956 0.9116 0.0000
vt 0.3626 0.7517 0.0000
vt 0.3354 0.1007 0.0000
vt 0.3354 0.0123 0.0000
vt 0.4973 0.1007 0.0000
vt 0.1083 0.9952 0.0000
vt 0.1361 0.9295 0.0000
vt 0.3050 0.9952 0.0000
vt 0.5314 0.1007 0.0000
vt 0.5314 0.0123 0.0000
vt 0.0507 0.7516 0.0000
vt 0.1177 0.7788 0.0000
vt 0.0507 0.9387 0.0000
vt 0.0134 0.1007 0.0000
vt 0.0134 0.0123 0.0000
vt 0.0503 0.1007 0.0000
vt 0.3051 0.6952 0.0000
vt 0.2773 0.7607 0.0000
vt 0.1083 0.6953 0.0000
vt 0.0503 0.0123 0.0000
vt 0.2954 0.7789 0.0000
vt 0.2772 0.9295 0.0000
vt 0.3020 0.0123 0.0000
vt 0.1178 0.9116 0.0000
vt 0.4973 0.0123 0.0000
vt 0.1361 0.7610 0.0000
vt 0.1223 0.1349 0.0000
vt 0.2682 0.1349 0.0000
vt 0.3577 0.1349 0.0000
vt 0.4853 0.1349 0.0000
vt 0.5268 0.1349 0.0000
vt 0.0255 0.1349 0.0000
vt 0.0624 0.1349 0.0000
vt 0.0874 0.1637 0.0000
vt 0.2664 0.6043 0.0000
vt 0.3038 0.1637 0.0000
vt 0.4909 0.6043 0.0000
vt 0.5747 0.6043 0.0000
vt 0.0522 0.1637 0.0000
vt 0.0874 0.6043 0.0000
vt 0.3038 0.6043 0.0000
vt 0.2664 0.1637 0.0000
vt 0.5356 0.6043 0.0000
vt 0.4909 0.1637 0.0000
vt 0.2727 0.9021 0.0000
vt 0.2679 0.9068 0.0000
vt 0.1458 0.9070 0.0000
vt 0.1409 0.9023 0.0000
vt 0.1407 0.7882 0.0000
vt 0.0126 0.4338 0.0000
vt 0.0126 0.3035 0.0000
vt 0.0126 0.6043 0.0000
vt 0.0874 0.1531 0.0000
vt 0.3038 0.1531 0.0000
vt 0.5356 0.1637 0.0000
vt 0.0522 0.1531 0.0000
vt 0.2664 0.1531 0.0000
vt 0.5356 0.1531 0.0000
vt 0.0126 0.1637 0.0000
vt 0.0126 0.1531 0.0000
vt 0.9826 0.0123 0.0000
vt 0.9782 0.1531 0.0000
vt 0.0522 0.6043 0.0000
vt 0.4909 0.1531 0.0000
# 112 texture coords

g Grim_Bear_Column
usemtl Material__507
s 1
f 1/1/1 2/2/2 3/3/3 
f 4/4/4 5/5/5 6/6/6 
f 5/5/5 4/4/4 7/7/7 
s 2
f 8/8/8 9/9/9 10/10/10 
f 11/11/11 12/12/12 13/13/13 
f 10/10/10 14/14/14 11/11/11 
f 15/15/15 10/10/10 16/16/16 
f 17/17/17 13/13/13 18/18/18 
f 16/16/16 11/11/11 17/17/17 
s 1
f 2/2/2 19/19/19 7/7/7 
f 3/3/3 20/20/20 1/1/1 
f 5/5/5 21/21/21 22/22/22 
f 6/6/6 23/23/23 4/4/4 
f 4/4/4 24/24/24 3/3/3 
f 7/7/7 25/25/25 5/5/5 
s 4
f 19/19/26 15/26/27 25/25/28 
f 21/21/29 17/27/30 26/28/31 
f 25/25/28 16/29/32 21/21/29 
s 1
f 27/30/33 28/31/34 29/32/35 
f 30/33/36 31/34/37 32/35/38 
f 33/36/39 34/37/40 35/38/41 
f 36/39/42 37/40/43 1/1/1 
f 38/41/44 39/42/45 30/33/36 
f 34/37/40 33/36/39 40/43/46 
f 37/40/43 36/39/42 41/44/47 
s 2
f 42/45/48 43/46/49 44/47/50 
s 1
f 45/48/51 46/49/52 47/50/53 
s 2
f 48/51/54 49/52/55 50/53/56 
s 1
f 51/54/57 52/55/58 53/56/59 
s 2
f 54/57/60 55/58/61 8/8/8 
s 1
f 56/59/62 57/60/63 58/61/64 
s 2
f 13/62/13 59/63/65 60/64/66 
s 1
f 61/65/67 62/66/68 63/67/69 
s 2
f 60/64/66 64/68/70 42/45/48 
s 1
f 47/50/53 65/69/71 61/65/67 
f 53/56/59 66/70/72 45/48/51 
s 2
f 44/47/50 67/71/73 48/51/54 
s 1
f 58/61/64 68/72/74 51/54/57 
s 2
f 50/53/56 69/73/75 54/57/60 
s 1
f 63/67/69 70/74/76 56/59/62 
s 2
f 71/75/77 44/47/50 72/76/78 
f 73/77/79 50/53/56 74/78/80 
f 75/79/81 8/8/8 15/15/15 
f 18/80/18 60/64/66 76/81/82 
f 76/81/82 42/45/48 71/75/77 
f 72/76/78 48/51/54 73/77/79 
f 74/78/80 54/57/60 75/79/81 
s 1
f 31/34/37 77/82/83 40/43/46 
f 32/35/38 78/83/84 30/33/36 
f 34/37/40 79/84/85 41/44/47 
f 35/38/41 80/85/86 33/36/39 
f 37/40/43 19/19/19 2/2/2 
f 1/1/1 81/86/87 36/39/42 
f 39/42/45 82/87/88 31/34/37 
f 30/33/36 83/88/89 38/41/44 
f 33/36/39 84/89/90 32/35/38 
f 40/43/46 85/90/91 34/37/40 
f 36/39/42 86/91/92 35/38/41 
f 41/44/47 87/92/93 37/40/43 
f 65/69/71 88/93/94 28/31/34 
f 46/49/52 89/94/95 88/93/94 
f 66/70/72 90/95/96 89/94/95 
f 52/55/58 91/96/97 90/95/96 
f 68/72/74 92/97/98 91/96/97 
f 57/60/63 29/32/35 92/97/98 
f 70/74/76 27/30/33 29/32/35 
f 62/66/68 28/31/34 27/30/33 
f 39/42/45 6/98/6 22/99/22 
f 38/41/44 23/100/23 6/98/6 
f 39/42/45 22/99/22 82/87/88 
s 4
f 77/82/99 71/101/100 85/90/101 
f 79/84/102 73/102/103 87/92/104 
f 93/103/105 15/26/27 19/19/26 
f 82/87/106 76/104/107 77/82/99 
f 85/90/101 72/105/108 79/84/102 
f 87/92/104 75/106/109 93/103/105 
f 26/107/31 18/108/110 82/87/106 
s 1
f 2/2/2 7/7/7 3/3/3 
f 5/5/5 22/22/22 6/6/6 
f 4/4/4 3/3/3 7/7/7 
s 2
f 9/9/9 14/14/14 10/10/10 
f 12/12/12 59/109/65 13/13/13 
f 14/14/14 12/12/12 11/11/11 
f 15/15/15 8/8/8 10/10/10 
f 17/17/17 11/11/11 13/13/13 
f 16/16/16 10/10/10 11/11/11 
s 1
f 19/19/19 25/25/25 7/7/7 
f 20/20/20 81/86/87 1/1/1 
f 21/21/21 26/28/111 22/22/22 
f 23/23/23 24/24/24 4/4/4 
f 24/24/24 20/20/20 3/3/3 
f 25/25/25 21/21/21 5/5/5 
s 4
f 15/26/27 16/29/32 25/25/28 
f 17/27/30 18/110/110 26/28/31 
f 16/29/32 17/27/30 21/21/29 
s 1
f 28/31/34 88/93/94 89/94/95 
f 89/94/95 90/95/96 91/96/97 
s 3
f 28/31/34 89/94/95 91/96/97 
s 1
f 91/96/97 92/97/98 29/32/35 
s 3
f 28/31/34 91/96/97 29/32/35 
s 1
f 31/34/37 40/43/46 32/35/38 
f 34/37/40 41/44/47 35/38/41 
f 37/40/43 2/2/2 1/1/1 
f 39/42/45 31/34/37 30/33/36 
f 33/36/39 32/35/38 40/43/46 
f 36/39/42 35/38/41 41/44/47 
s 2
f 43/46/49 67/71/73 44/47/50 
s 1
f 46/49/52 65/69/71 47/50/53 
s 2
f 49/52/55 69/73/75 50/53/56 
s 1
f 52/55/58 66/70/72 53/56/59 
s 2
f 55/58/61 9/9/9 8/8/8 
s 1
f 57/60/63 68/72/74 58/61/64 
s 2
f 59/63/65 64/68/70 60/64/66 
s 1
f 62/66/68 70/74/76 63/67/69 
s 2
f 64/68/70 43/46/49 42/45/48 
s 1
f 65/69/71 62/66/68 61/65/67 
f 66/70/72 46/49/52 45/48/51 
s 2
f 67/71/73 49/52/55 48/51/54 
s 1
f 68/72/74 52/55/58 51/54/57 
s 2
f 69/73/75 55/58/61 54/57/60 
s 1
f 70/74/76 57/60/63 56/59/62 
s 2
f 71/75/77 42/45/48 44/47/50 
f 73/77/79 48/51/54 50/53/56 
f 75/79/81 54/57/60 8/8/8 
f 18/80/18 13/62/13 60/64/66 
f 76/81/82 60/64/66 42/45/48 
f 72/76/78 44/47/50 48/51/54 
f 74/78/80 50/53/56 54/57/60 
s 1
f 77/82/83 85/90/91 40/43/46 
f 78/83/84 83/88/89 30/33/36 
f 79/84/85 87/92/93 41/44/47 
f 80/85/86 84/89/90 33/36/39 
f 37/40/43 93/103/112 19/19/19 
f 81/86/87 86/91/92 36/39/42 
f 82/87/88 77/82/83 31/34/37 
f 83/88/89 94/111/113 38/41/44 
f 84/89/90 78/83/84 32/35/38 
f 85/90/91 79/84/85 34/37/40 
f 86/91/92 80/85/86 35/38/41 
f 87/92/93 93/103/112 37/40/43 
f 65/69/71 46/49/52 88/93/94 
f 46/49/52 66/70/72 89/94/95 
f 66/70/72 52/55/58 90/95/96 
f 52/55/58 68/72/74 91/96/97 
f 68/72/74 57/60/63 92/97/98 
f 57/60/63 70/74/76 29/32/35 
f 70/74/76 62/66/68 27/30/33 
f 62/66/68 65/69/71 28/31/34 
f 39/42/45 38/41/44 6/98/6 
f 38/41/44 94/111/113 23/100/23 
f 22/99/22 26/107/111 82/87/88 
s 4
f 71/101/100 72/105/108 85/90/101 
f 73/102/103 74/112/114 87/92/104 
f 93/103/105 75/106/109 15/26/27 
f 76/104/107 71/101/100 77/82/99 
f 72/105/108 73/102/103 79/84/102 
f 87/92/104 74/112/114 75/106/109 
f 18/108/110 76/104/107 82/87/106 
# 158 faces

