# 3ds Max Wavefront OBJ Exporter v0.97b - (c)2007 guruware
# File Created: 08.01.2015 11:59:36

mtllib stairs_up.mtl

#
# object Grim_Bear_Stairs_Up
#

v  108.0579 -0.4633 76.6564
v  -108.0578 39.0655 76.6564
v  -108.0578 -0.4634 76.6564
v  108.0579 39.0655 76.6564
v  -108.0578 39.0655 48.7654
v  108.0579 39.0655 48.7653
v  -108.0579 74.4634 48.7654
v  -108.0579 39.0655 48.7654
v  108.0579 74.4635 48.7653
v  -108.0579 74.4634 20.8743
v  108.0579 74.4635 20.8743
v  -108.0579 106.4634 25.0906
v  -108.0579 74.4634 25.0906
v  108.0579 106.4635 20.8743
v  -108.0579 106.4634 -7.0168
v  108.0579 106.4635 -7.0168
v  -108.0579 138.4634 -7.0168
v  108.0579 138.4635 -7.0168
v  -108.0579 138.4634 -34.9079
v  108.0579 138.4635 -26.1627
v  -108.0579 170.4635 -34.9079
v  108.0579 170.4635 -34.9079
v  -108.0579 170.4635 -62.7990
v  108.0579 170.4635 -62.7990
v  -108.0579 202.4635 -62.7990
v  108.0579 202.4635 -62.7990
v  -108.0579 202.4635 -82.5392
v  108.0579 202.4635 -82.5391
v  -108.0579 234.4635 -82.5392
v  -108.0579 202.4635 -77.4770
v  108.0579 234.4635 -82.5391
v  -108.0579 234.4635 -110.4303
v  108.6517 234.4635 -110.2742
v  -108.6519 266.4634 -110.2742
v  -108.6519 234.4634 -110.2742
v  108.6517 266.4635 -110.2742
v  -108.6519 266.4634 -150.0499
v  108.6517 239.5367 -150.0499
v  -108.6519 239.5366 -150.0499
v  108.0579 138.4635 -34.9079
v  108.0579 202.4635 -82.5392
v  108.0579 234.4635 -110.4303
v  108.6517 266.4635 -150.0499
v  -106.6198 276.4634 -110.9179
v  -100.9472 276.4634 -114.5711
v  -152.2320 276.4634 -110.9179
v  -92.1275 234.4635 -163.8366
v  -92.1274 266.4635 -163.8366
v  -92.1274 234.4634 -110.9179
v  -155.8853 234.4634 -172.6564
v  -155.8853 266.4635 -172.6564
v  -100.9472 234.4635 -172.6564
v  -164.7051 234.4634 -110.9179
v  -164.7051 266.4635 -110.9179
v  -164.7051 234.4634 -163.8366
v  -100.9472 234.4634 -102.0981
v  -100.9472 266.4635 -102.0981
v  -155.8853 234.4634 -102.0981
v  -92.1274 266.4635 -110.9179
v  -100.9472 266.4635 -172.6564
v  -164.7051 266.4635 -163.8366
v  -155.8853 266.4635 -102.0981
v  -100.9472 276.4634 -160.1833
v  -104.6005 276.4634 -163.8366
v  -152.2320 276.4634 -163.8366
v  -155.8853 276.4634 -160.1833
v  -155.8853 276.4634 -114.5711
v  106.6197 276.4634 -110.9179
v  152.2319 276.4634 -110.9179
v  100.9472 276.4634 -114.5712
v  92.1274 234.4634 -110.9179
v  92.1274 266.4635 -110.9179
v  92.1274 266.4635 -163.8366
v  100.9472 234.4635 -172.6564
v  100.9472 266.4635 -172.6564
v  155.8852 266.4635 -172.6564
v  164.7050 234.4634 -163.8366
v  164.7050 266.4635 -163.8366
v  164.7050 266.4635 -110.9179
v  155.8852 234.4634 -102.0981
v  155.8852 266.4635 -102.0981
v  100.9472 266.4635 -102.0981
v  100.9472 234.4634 -102.0981
v  92.1274 234.4635 -163.8366
v  155.8852 234.4634 -172.6564
v  164.7050 234.4634 -110.9179
v  100.9472 276.4634 -160.1833
v  104.6004 276.4634 -163.8366
v  152.2319 276.4634 -163.8366
v  155.8852 276.4634 -160.1833
v  155.8852 276.4634 -114.5711
# 91 vertices

vn 0.0000 0.0000 1.0000
vn -0.0000 0.7071 0.7071
vn -0.0000 1.0000 -0.0000
vn -0.0000 1.0000 0.0000
vn 0.0195 0.0000 0.9998
vn 0.0139 0.7027 0.7114
vn 0.0137 0.7115 0.7026
vn -0.0038 0.2396 0.9709
vn -0.0256 0.7160 0.6976
vn -0.0404 0.0000 0.9992
vn -0.0000 0.7949 0.6068
vn -0.0000 -0.0000 1.0000
vn 0.0022 0.0148 0.9999
vn 0.0139 0.7555 0.6550
vn 0.0231 0.1562 0.9875
vn -0.0000 0.0000 1.0000
vn -0.0000 0.7071 -0.7071
vn 0.0000 -0.0000 -1.0000
vn 0.1051 0.8975 0.4283
vn 0.4200 0.8837 0.2068
vn -0.1797 0.8828 0.4339
vn 0.9239 -0.0000 -0.3827
vn 0.8675 0.3439 -0.3593
vn 0.9239 -0.0000 0.3827
vn -0.3827 0.0000 -0.9239
vn -0.3593 0.3439 -0.8675
vn 0.3827 0.0000 -0.9239
vn -0.9239 0.0000 0.3827
vn -0.8675 0.3439 0.3593
vn -0.9239 0.0000 -0.3827
vn 0.3827 -0.0000 0.9239
vn 0.3590 0.3479 0.8661
vn -0.3827 0.0000 0.9239
vn 0.8675 0.3439 0.3593
vn 0.3593 0.3439 -0.8675
vn -0.8675 0.3439 -0.3593
vn -0.3593 0.3439 0.8675
vn 0.4339 0.8828 -0.1797
vn 0.1797 0.8828 -0.4339
vn -0.1797 0.8828 -0.4339
vn -0.4339 0.8828 -0.1797
vn -0.4339 0.8828 0.1797
vn -0.1051 0.8975 0.4283
vn 0.1797 0.8828 0.4339
vn -0.4200 0.8837 0.2068
vn -0.9239 -0.0000 0.3827
vn -0.3827 -0.0000 -0.9239
vn 0.9239 0.0000 -0.3827
vn 0.3827 0.0000 0.9239
vn 0.3593 0.3439 0.8675
vn -0.3590 0.3479 0.8661
vn -0.3827 -0.0000 0.9239
vn -0.9239 -0.0000 -0.3827
vn 0.9239 0.0000 0.3827
vn 0.4339 0.8828 0.1797
# 55 vertex normals

vt 0.9873 0.4961 0.0000
vt 0.0044 0.7383 0.0000
vt 0.0044 0.4961 0.0000
vt 0.9873 0.7383 0.0000
vt 0.0044 0.9805 0.0000
vt 0.9870 0.0094 0.0000
vt 0.0042 0.2516 0.0000
vt 0.0042 0.0094 0.0000
vt 0.9870 0.2516 0.0000
vt 0.0042 0.4938 0.0000
vt 0.9874 0.4966 0.0000
vt 0.0045 0.7388 0.0000
vt 0.0045 0.4966 0.0000
vt 0.9874 0.7388 0.0000
vt 0.0045 0.9810 0.0000
vt 0.9871 0.0092 0.0000
vt 0.0042 0.2514 0.0000
vt 0.0042 0.0092 0.0000
vt 0.9871 0.2514 0.0000
vt 0.0042 0.4936 0.0000
vt 0.9871 0.4963 0.0000
vt 0.0042 0.7385 0.0000
vt 0.0042 0.4963 0.0000
vt 0.9871 0.7385 0.0000
vt 0.0042 0.9807 0.0000
vt 0.9871 0.0093 0.0000
vt 0.0042 0.2515 0.0000
vt 0.0042 0.0093 0.0000
vt 0.9871 0.2515 0.0000
vt 0.0042 0.4937 0.0000
vt 0.9871 0.4964 0.0000
vt 0.0042 0.7386 0.0000
vt 0.0042 0.4964 0.0000
vt 0.9871 0.7386 0.0000
vt 0.0042 0.9808 0.0000
vt 0.0037 0.8658 0.0000
vt 0.9872 0.9789 0.0000
vt 0.0038 0.9789 0.0000
vt 0.9873 0.9805 0.0000
vt 0.9870 0.4938 0.0000
vt 0.9874 0.9810 0.0000
vt 0.9871 0.4936 0.0000
vt 0.9871 0.9807 0.0000
vt 0.9871 0.4937 0.0000
vt 0.9871 0.9808 0.0000
vt 0.9871 0.8658 0.0000
vt 0.2624 0.7828 0.0000
vt 0.2722 0.7881 0.0000
vt 0.1456 0.7836 0.0000
vt 0.3627 0.9389 0.0000
vt 0.2956 0.9116 0.0000
vt 0.3626 0.7517 0.0000
vt 0.1083 0.9952 0.0000
vt 0.1361 0.9295 0.0000
vt 0.3050 0.9952 0.0000
vt 0.0507 0.7516 0.0000
vt 0.1177 0.7788 0.0000
vt 0.0507 0.9387 0.0000
vt 0.3051 0.6952 0.0000
vt 0.2773 0.7607 0.0000
vt 0.1083 0.6953 0.0000
vt 0.2954 0.7789 0.0000
vt 0.2772 0.9295 0.0000
vt 0.1178 0.9116 0.0000
vt 0.1361 0.7610 0.0000
vt 0.2727 0.9021 0.0000
vt 0.2679 0.9068 0.0000
vt 0.1458 0.9070 0.0000
vt 0.1409 0.9023 0.0000
vt 0.1407 0.7882 0.0000
# 70 texture coords

g Grim_Bear_Stairs_Up
usemtl Material__532
s 1
f 1/1/1 2/2/2 3/3/1 
f 4/4/2 5/5/3 2/2/2 
f 6/6/1 7/7/2 8/8/1 
f 9/9/2 10/10/4 7/7/2 
f 11/11/5 12/12/6 13/13/5 
f 14/14/7 15/15/3 12/12/6 
f 16/16/1 17/17/2 15/18/1 
f 18/19/2 19/20/4 17/17/2 
f 20/21/8 21/22/9 19/23/10 
f 22/24/11 23/25/4 21/22/9 
f 24/26/12 25/27/2 23/28/12 
f 26/29/2 27/30/4 25/27/2 
f 28/31/13 29/32/14 30/33/15 
f 31/34/2 32/35/4 29/32/14 
f 33/31/16 34/32/2 35/33/16 
f 36/34/2 37/35/17 34/32/2 
f 37/36/17 38/37/18 39/38/18 
f 1/1/1 4/4/2 2/2/2 
f 4/4/2 6/39/4 5/5/3 
f 6/6/1 9/9/2 7/7/2 
f 9/9/2 11/40/4 10/10/4 
f 11/11/5 14/14/7 12/12/6 
f 14/14/7 16/41/4 15/15/3 
f 16/16/1 18/19/2 17/17/2 
f 18/19/2 40/42/4 19/20/4 
f 20/21/8 22/24/11 21/22/9 
f 22/24/11 24/43/4 23/25/4 
f 24/26/12 26/29/2 25/27/2 
f 26/29/2 41/44/4 27/30/4 
f 28/31/13 31/34/2 29/32/14 
f 31/34/2 42/45/4 32/35/4 
f 33/31/16 36/34/2 34/32/2 
f 36/34/2 43/45/17 37/35/17 
f 37/36/17 43/46/17 38/37/18 
usemtl Material__508
f 44/47/19 45/48/20 46/49/21 
f 47/50/22 48/51/23 49/52/24 
f 50/53/25 51/54/26 52/55/27 
f 53/56/28 54/57/29 55/58/30 
f 56/59/31 57/60/32 58/61/33 
f 49/52/24 59/62/34 56/59/31 
f 52/55/27 60/63/35 47/50/22 
f 55/58/30 61/64/36 50/53/25 
f 58/61/33 62/65/37 53/56/28 
f 59/62/34 63/66/38 45/48/20 
f 48/51/23 64/67/39 63/66/38 
f 60/63/35 65/68/40 64/67/39 
f 51/54/26 66/69/41 65/68/40 
f 61/64/36 67/70/42 66/69/41 
f 54/57/29 46/49/21 67/70/42 
f 62/65/37 44/47/19 46/49/21 
f 57/60/32 45/48/20 44/47/19 
f 68/47/43 69/49/44 70/48/45 
f 71/52/46 72/62/29 73/51/36 
f 74/55/47 75/63/26 76/54/35 
f 77/58/48 78/64/23 79/57/34 
f 80/61/49 81/65/50 82/60/51 
f 83/59/52 82/60/51 72/62/29 
f 84/50/53 73/51/36 75/63/26 
f 85/53/27 76/54/35 78/64/23 
f 86/56/54 79/57/34 81/65/50 
f 72/62/29 87/66/41 73/51/36 
f 73/51/36 88/67/40 75/63/26 
f 75/63/26 89/68/39 76/54/35 
f 76/54/35 90/69/38 78/64/23 
f 78/64/23 91/70/55 79/57/34 
f 79/57/34 69/49/44 81/65/50 
f 81/65/50 68/47/43 82/60/51 
f 82/60/51 70/48/45 72/62/29 
f 45/48/20 63/66/38 64/67/39 
f 64/67/39 65/68/40 66/69/41 
f 45/48/20 64/67/39 66/69/41 
f 66/69/41 67/70/42 46/49/21 
f 45/48/20 66/69/41 46/49/21 
f 48/51/23 59/62/34 49/52/24 
f 51/54/26 60/63/35 52/55/27 
f 54/57/29 61/64/36 55/58/30 
f 57/60/32 62/65/37 58/61/33 
f 59/62/34 57/60/32 56/59/31 
f 60/63/35 48/51/23 47/50/22 
f 61/64/36 51/54/26 50/53/25 
f 62/65/37 54/57/29 53/56/28 
f 59/62/34 48/51/23 63/66/38 
f 48/51/23 60/63/35 64/67/39 
f 60/63/35 51/54/26 65/68/40 
f 51/54/26 61/64/36 66/69/41 
f 61/64/36 54/57/29 67/70/42 
f 54/57/29 62/65/37 46/49/21 
f 62/65/37 57/60/32 44/47/19 
f 57/60/32 59/62/34 45/48/20 
f 69/49/44 91/70/55 90/69/38 
f 90/69/38 89/68/39 88/67/40 
f 88/67/40 87/66/41 70/48/45 
f 90/69/38 88/67/40 70/48/45 
f 69/49/44 90/69/38 70/48/45 
f 73/51/36 84/50/53 71/52/46 
f 76/54/35 85/53/27 74/55/47 
f 79/57/34 86/56/54 77/58/48 
f 82/60/51 83/59/52 80/61/49 
f 72/62/29 71/52/46 83/59/52 
f 75/63/26 74/55/47 84/50/53 
f 78/64/23 77/58/48 85/53/27 
f 81/65/50 80/61/49 86/56/54 
f 72/62/29 70/48/45 87/66/41 
f 73/51/36 87/66/41 88/67/40 
f 75/63/26 88/67/40 89/68/39 
f 76/54/35 89/68/39 90/69/38 
f 78/64/23 90/69/38 91/70/55 
f 79/57/34 91/70/55 69/49/44 
f 81/65/50 69/49/44 68/47/43 
f 82/60/51 68/47/43 70/48/45 
# 110 faces

