# 3ds Max Wavefront OBJ Exporter v0.97b - (c)2007 guruware
# File Created: 08.01.2015 11:43:47

mtllib wall_2sided.mtl

#
# object Grim_Bear_Wall_2sided
#

v  64.0000 28.9764 -22.6468
v  -0.0000 26.5520 -18.2762
v  64.0000 0.0000 -22.6467
v  64.0000 34.4244 -11.5882
v  -0.0000 32.0000 -11.5882
v  -64.0000 30.3333 -23.1776
v  -128.0000 27.4084 -17.3829
v  -64.0000 -0.0000 -23.1776
v  -0.0000 0.0000 -18.2762
v  128.0000 26.7299 -17.1174
v  -64.0000 35.7812 -11.5882
v  128.0000 32.0000 -11.5881
v  64.0000 248.0537 -20.6228
v  0.0000 248.0536 -22.5513
v  64.0000 224.0000 -23.4231
v  -64.0000 248.0536 -19.2801
v  -128.0000 248.0061 -19.4308
v  -64.0000 224.0000 -22.0805
v  0.0000 224.0000 -25.3517
v  128.0000 224.0000 -18.4924
v  64.0000 256.8082 -11.7386
v  128.0000 256.8063 -11.7838
v  64.0000 256.8064 0.0000
v  0.0000 256.8063 -0.0000
v  -128.0000 256.8063 -0.0000
v  -128.0000 256.8063 -11.7839
v  -64.0000 256.8063 0.0000
v  -64.0000 256.8665 -10.4021
v  -128.0000 32.0000 -11.5882
v  -128.0000 224.0000 -11.5882
v  128.0000 248.0061 -19.4307
v  0.0000 256.7367 -13.6601
v  64.0000 0.0000 22.6468
v  -0.0001 0.0000 18.2762
v  -0.0001 26.5520 18.2762
v  64.0000 28.9764 22.6468
v  -0.0001 32.0000 11.5882
v  -64.0000 -0.0000 23.1776
v  -128.0000 -0.0000 17.3829
v  -128.0000 27.4084 17.3829
v  -64.0000 30.3333 23.1776
v  128.0000 26.7299 17.1175
v  128.0000 0.0000 17.1175
v  -64.0001 35.7812 11.5882
v  -128.0000 32.0000 11.5882
v  63.9999 34.4244 11.5882
v  64.0000 224.0000 23.4232
v  0.0000 224.0000 25.3517
v  0.0000 248.0536 22.5513
v  -64.0000 224.0000 22.0805
v  -128.0000 224.0000 18.4925
v  -128.0000 248.0061 19.4308
v  -64.0000 248.0536 19.2801
v  64.0000 248.0537 20.6228
v  127.9999 248.0061 19.4307
v  127.9999 224.0000 18.4925
v  128.0000 256.8063 0.0000
v  127.9999 256.8063 11.7839
v  64.0000 256.8082 11.7386
v  -0.0000 256.7367 13.6601
v  -64.0000 256.8665 10.4021
v  -128.0000 256.8063 11.7839
v  -128.0000 224.0000 11.5882
v  127.9999 224.0000 11.5882
v  127.9999 32.0000 11.5882
v  -128.0000 -0.0000 -17.3829
v  128.0000 0.0000 -17.1174
v  -128.0000 224.0000 -18.4925
v  128.0000 224.0000 -11.5882
# 69 vertices

vn 0.0146 0.5215 -0.8531
vn -0.0034 0.4330 -0.9014
vn 0.0090 -0.0000 -1.0000
vn 0.0163 0.8918 -0.4521
vn -0.0109 0.7836 -0.6211
vn -0.0022 0.5358 -0.8443
vn -0.0787 0.4468 -0.8912
vn -0.0069 0.0000 -1.0000
vn 0.0041 0.0000 -1.0000
vn 0.0650 0.4103 -0.9096
vn 0.0026 0.8968 -0.4424
vn 0.0150 0.3969 -0.9178
vn 0.0338 0.4315 -0.9015
vn -0.0090 0.4373 -0.8993
vn 0.0530 0.1155 -0.9919
vn -0.0190 0.4375 -0.8990
vn -0.0221 0.3482 -0.9372
vn -0.0310 0.0981 -0.9947
vn -0.0104 0.1156 -0.9932
vn 0.0319 -0.0035 -0.9995
vn 0.0086 0.9257 -0.3782
vn -0.0003 0.9099 -0.4149
vn 0.0000 1.0000 0.0000
vn 0.0004 1.0000 -0.0000
vn -0.0000 1.0000 0.0000
vn 0.0016 0.9097 -0.4152
vn -0.0005 1.0000 -0.0000
vn -0.0058 0.9288 -0.3706
vn -0.0260 0.4399 -0.8977
vn -0.0000 -0.0000 -1.0000
vn 0.0106 0.3374 -0.9413
vn -0.0035 0.9216 -0.3880
vn 0.0090 -0.0000 1.0000
vn 0.0041 0.0000 1.0000
vn -0.0034 0.4330 0.9014
vn 0.0146 0.5215 0.8531
vn -0.0109 0.7836 0.6211
vn -0.0069 0.0000 1.0000
vn -0.0902 -0.0000 0.9959
vn -0.0786 0.4468 0.8912
vn -0.0022 0.5358 0.8443
vn 0.0650 0.4103 0.9096
vn 0.0861 -0.0000 0.9963
vn 0.0026 0.8968 0.4424
vn -0.0260 0.4399 0.8977
vn 0.0163 0.8918 0.4521
vn 0.0530 0.1155 0.9919
vn -0.0104 0.1156 0.9932
vn -0.0090 0.4373 0.8993
vn -0.0310 0.0981 0.9947
vn -0.0559 -0.0390 0.9977
vn -0.0221 0.3482 0.9372
vn -0.0190 0.4375 0.8990
vn 0.0338 0.4315 0.9015
vn 0.0106 0.3374 0.9413
vn 0.0319 -0.0035 0.9995
vn 0.0000 1.0000 -0.0000
vn -0.0003 0.9099 0.4149
vn 0.0086 0.9257 0.3782
vn -0.0035 0.9216 0.3880
vn -0.0058 0.9288 0.3706
vn 0.0016 0.9097 0.4152
vn 0.0000 -0.0000 1.0000
vn 0.0150 0.3969 0.9178
vn -0.0902 -0.0000 -0.9959
vn 0.0861 -0.0000 -0.9963
vn -0.0559 -0.0390 -0.9977
# 67 vertex normals

vt 0.6213 0.0932 0.0000
vt 0.4151 0.0932 0.0000
vt 0.6213 0.0060 0.0000
vt 0.6213 0.1139 0.0000
vt 0.4151 0.1139 0.0000
vt 0.2085 0.0932 0.0000
vt 0.0010 0.0932 0.0000
vt 0.2085 0.0060 0.0000
vt 0.4151 0.0060 0.0000
vt 0.8284 0.0932 0.0000
vt 0.2085 0.1139 0.0000
vt 0.8284 0.1139 0.0000
vt 0.2088 0.8194 0.0000
vt 0.4158 0.8194 0.0000
vt 0.2088 0.7421 0.0000
vt 0.6221 0.8194 0.0000
vt 0.8289 0.8193 0.0000
vt 0.6221 0.7421 0.0000
vt 0.4158 0.7421 0.0000
vt 0.0011 0.7421 0.0000
vt 0.2088 0.8657 0.0000
vt 0.0011 0.8657 0.0000
vt 0.2088 0.8963 0.0000
vt 0.4158 0.8964 0.0000
vt 0.8289 0.8964 0.0000
vt 0.8289 0.8657 0.0000
vt 0.6221 0.8964 0.0000
vt 0.6221 0.8672 0.0000
vt 0.0011 0.1176 0.0000
vt 0.8282 0.1176 0.0000
vt 0.0011 0.7380 0.0000
vt 0.0011 0.8193 0.0000
vt 0.4158 0.8639 0.0000
vt 0.0010 0.0060 0.0000
vt 0.8284 0.0060 0.0000
vt 0.0010 0.1139 0.0000
vt 0.8289 0.7421 0.0000
vt 0.0011 0.8963 0.0000
vt 0.8282 0.7380 0.0000
# 39 texture coords

g Grim_Bear_Wall_2sided
usemtl Material__506
s 1
f 3/3/3 2/2/2 1/1/1 
f 1/1/1 5/5/5 4/4/4 
f 8/8/8 7/7/7 6/6/6 
f 9/9/9 6/6/6 2/2/2 
f 1/1/1 10/10/10 3/3/3 
f 6/6/6 7/7/7 11/11/11 
f 2/2/2 11/11/11 5/5/5 
f 4/4/4 12/12/12 10/10/10 
f 15/15/15 14/14/14 13/13/13 
f 18/18/18 17/17/17 16/16/16 
f 19/19/19 16/16/16 14/14/14 
f 13/13/13 20/20/20 15/15/15 
s 3
f 23/23/23 22/22/22 21/21/21 
f 23/23/23 21/21/21 24/24/24 
f 27/27/27 26/26/26 25/25/25 
f 24/24/24 28/28/28 27/27/27 
s 1
f 30/31/30 12/30/12 29/29/29 
f 13/13/13 21/21/21 31/32/31 
f 14/14/14 32/33/32 13/13/13 
f 16/16/16 28/28/28 14/14/14 
f 17/17/17 26/26/26 16/16/16 
s 3
f 35/2/35 34/9/34 33/3/33 
s 1
f 37/5/37 35/2/35 36/1/36 
s 3
f 40/7/40 39/34/39 38/8/38 
f 41/6/41 38/8/38 34/9/34 
f 43/35/43 42/10/42 33/3/33 
s 1
f 45/36/45 40/7/40 44/11/44 
f 44/11/44 41/6/41 35/2/35 
f 46/4/46 36/1/36 42/10/42 
f 49/14/49 48/19/48 47/15/47 
f 52/17/52 51/37/51 50/18/50 
f 53/16/53 50/18/50 48/19/48 
f 56/20/56 55/32/55 54/13/54 
s 3
f 58/22/58 57/38/57 23/23/23 
f 60/33/60 59/21/59 24/24/24 
f 62/26/62 61/28/61 27/27/27 
f 61/28/61 60/33/60 24/24/24 
s 1
f 65/30/64 64/39/63 63/31/63 
f 58/22/58 59/21/59 55/32/55 
f 59/21/59 60/33/60 54/13/54 
f 60/33/60 61/28/61 49/14/49 
f 61/28/61 62/26/62 53/16/53 
f 3/3/3 9/9/9 2/2/2 
f 1/1/1 2/2/2 5/5/5 
f 8/8/8 66/34/65 7/7/7 
f 9/9/9 8/8/8 6/6/6 
f 10/10/10 67/35/66 3/3/3 
f 7/7/7 29/36/29 11/11/11 
f 2/2/2 6/6/6 11/11/11 
f 10/10/10 1/1/1 4/4/4 
f 15/15/15 19/19/19 14/14/14 
f 18/18/18 68/37/67 17/17/17 
f 19/19/19 18/18/18 16/16/16 
f 13/13/13 31/32/31 20/20/20 
s 3
f 23/23/23 57/38/57 22/22/22 
f 21/21/21 32/33/32 24/24/24 
f 27/27/27 28/28/28 26/26/26 
f 24/24/24 32/33/32 28/28/28 
s 1
f 30/31/30 69/39/30 12/30/12 
f 21/21/21 22/22/22 31/32/31 
f 32/33/32 21/21/21 13/13/13 
f 28/28/28 32/33/32 14/14/14 
f 26/26/26 28/28/28 16/16/16 
s 3
f 33/3/33 36/1/36 35/2/35 
s 1
f 36/1/36 46/4/46 37/5/37 
s 3
f 38/8/38 41/6/41 40/7/40 
f 34/9/34 35/2/35 41/6/41 
f 42/10/42 36/1/36 33/3/33 
s 1
f 40/7/40 41/6/41 44/11/44 
f 35/2/35 37/5/37 44/11/44 
f 42/10/42 65/12/64 46/4/46 
f 47/15/47 54/13/54 49/14/49 
f 50/18/50 53/16/53 52/17/52 
f 48/19/48 49/14/49 53/16/53 
f 54/13/54 47/15/47 56/20/56 
s 3
f 23/23/23 59/21/59 58/22/58 
f 59/21/59 23/23/23 24/24/24 
f 27/27/27 25/25/25 62/26/62 
f 24/24/24 27/27/27 61/28/61 
s 1
f 63/31/63 45/29/45 65/30/64 
f 59/21/59 54/13/54 55/32/55 
f 60/33/60 49/14/49 54/13/54 
f 61/28/61 53/16/53 49/14/49 
f 62/26/62 52/17/52 53/16/53 
# 84 faces

